<?xml version="1.0" encoding="UTF-8" standalone="no"?>
<!DOCTYPE svg PUBLIC "-//W3C//DTD SVG 1.1//EN" "http://www.w3.org/Graphics/SVG/1.1/DTD/svg11.dtd">
<svg width="100%" height="100%" viewBox="0 0 624 920" version="1.1" xmlns="http://www.w3.org/2000/svg" xmlns:xlink="http://www.w3.org/1999/xlink" xml:space="preserve" xmlns:serif="http://www.serif.com/" style="fill-rule:evenodd;clip-rule:evenodd;stroke-linejoin:round;stroke-miterlimit:2;">
    <g transform="matrix(1,0,0,1,-1387.21,-433.853)">
        <g id="Layer1">
            <g transform="matrix(1,0,0,1,448.687,-68.6574)">
                <g transform="matrix(1,0,0,1,456.26,398.597)">
                    <path d="M729.509,263.605C712.334,246.697 701.663,223.085 701.663,196.976C701.663,145.613 742.962,103.913 793.831,103.913C844.7,103.913 886,145.613 886,196.976C886,223.085 875.329,246.697 858.154,263.605L883.55,395.178L922.632,395.178L922.632,378.88L954.47,378.88L954.47,409.581L1013.17,409.581C1014.73,406.25 1017.11,403.239 1020.24,400.864C1030.6,393.019 1045.37,395.057 1053.22,405.412C1061.06,415.767 1059.02,430.543 1048.67,438.388C1038.31,446.233 1023.54,444.194 1015.69,433.839C1014.69,432.514 1013.85,431.116 1013.16,429.67L954.47,429.67L954.47,460.372L922.632,460.372L922.632,442.178L895.307,442.178C920.402,511.733 976.73,554.993 1037.05,608.003C1106.52,669.042 1131.54,769.116 1071.74,851.868C1039.61,896.329 992.984,912.118 971.152,917.295C969.315,917.709 967.418,916.91 966.431,915.307C965.445,913.703 965.586,911.65 966.783,910.197C973.855,901.601 983.586,889.79 986.111,886.725C986.528,886.219 987.061,885.82 987.664,885.562C995.153,882.167 1045.44,857.343 1059.89,797.322C1069.61,756.925 1070.7,699.178 1015.06,649.291C960.937,600.761 864.309,546.504 839.165,430.76L838.928,429.67L748.734,429.67L748.498,430.76C723.354,546.504 626.725,600.761 572.601,649.291C516.963,699.178 518.049,756.925 527.773,797.322C542.22,857.343 592.51,882.167 599.998,885.562C600.602,885.82 601.134,886.219 601.551,886.725C604.076,889.79 613.807,901.601 620.879,910.197C622.077,911.65 622.218,913.703 621.231,915.307C620.244,916.91 618.347,917.709 616.511,917.295C594.678,912.118 548.053,896.329 515.923,851.868C456.124,769.116 481.148,669.042 550.609,608.003C619.987,547.037 684.079,498.967 701.452,408.96L729.509,263.605ZM753.098,409.581L834.564,409.581L808.607,290.095C804.882,292.206 800.63,293.518 796.07,293.785C789.901,294.146 784.068,292.542 779.182,289.514L753.098,409.581ZM852.598,234.821C859.418,224.067 863.368,211.317 863.368,197.652C863.368,159.273 832.21,128.114 793.831,128.114C755.453,128.114 724.294,159.273 724.294,197.652C724.294,211.317 728.245,224.067 735.065,234.821L741.148,203.306C741.797,199.942 744.563,197.394 747.97,197.023C751.376,196.651 754.626,198.543 755.985,201.689L774.319,244.117C779.114,239.489 785.522,236.485 792.69,236.065C800.687,235.597 808.121,238.433 813.658,243.39L831.677,201.689C833.036,198.543 836.287,196.651 839.693,197.023C843.099,197.394 845.865,199.942 846.515,203.306L852.598,234.821Z" style="fill:rgb(228,214,191);"/>
                </g>
                <g transform="matrix(0.908646,0,0,0.944872,-83.177,30.8221)">
                    <path d="M1529.45,1038.71C1598.21,1042.39 1644.1,1136.5 1644.1,1247.91C1644.1,1372.07 1564.88,1472.86 1467.31,1472.86C1369.74,1472.86 1290.52,1372.07 1290.52,1247.91C1290.52,1134.05 1363.89,1018.4 1443.46,1024.99C1474.08,1027.53 1455.49,1060.88 1445.57,1130.54C1430.73,1234.72 1479.78,1297.48 1492.18,1345.5C1499.17,1372.59 1451.03,1444.68 1467.31,1452.61C1483.59,1460.53 1524.36,1388.7 1529.45,1350.27C1536.69,1295.66 1479.78,1297.61 1479.78,1216.37C1479.78,1096.19 1498.41,1037.05 1529.45,1038.71Z" style="fill:rgb(228,214,191);"/>
                </g>
            </g>
        </g>
        <g transform="matrix(0.977208,0.212285,-0.212285,0.977208,1520.39,723.758)">
            <g id="Layer2">
                <path d="M717.262,188.551C715.266,185.766 711.688,184.607 708.439,185.693C705.189,186.779 703.027,189.856 703.106,193.282C704.132,237.421 706.299,330.65 707.973,402.675C710.103,494.319 657.676,554.899 602.821,629.203C547.901,703.596 544.692,806.702 620.695,874.873C661.531,911.5 710.445,917.031 732.879,917.456C734.762,917.471 736.446,916.287 737.07,914.511C737.694,912.734 737.12,910.758 735.642,909.592C726.906,902.693 714.889,893.217 711.771,890.758C711.256,890.352 710.651,890.075 710.007,889.951C701.968,888.223 647.555,874.641 620.695,819.055C602.617,781.643 589.298,725.442 633.077,664.881C675.666,605.968 758.574,532.435 758.574,413.99L758.574,246.2C758.574,246.2 733.87,211.727 717.262,188.551Z" style="fill:rgb(64,43,21);"/>
            </g>
        </g>
    </g>
</svg>
