<?xml version="1.0" encoding="UTF-8" standalone="no"?>
<!DOCTYPE svg PUBLIC "-//W3C//DTD SVG 1.1//EN" "http://www.w3.org/Graphics/SVG/1.1/DTD/svg11.dtd">
<svg width="100%" height="100%" viewBox="0 0 13 16" version="1.1" xmlns="http://www.w3.org/2000/svg" xmlns:xlink="http://www.w3.org/1999/xlink" xml:space="preserve" xmlns:serif="http://www.serif.com/" style="fill-rule:evenodd;clip-rule:evenodd;stroke-linejoin:round;stroke-miterlimit:2;">
    <g transform="matrix(1,0,0,1,-2972.98,-883.922)">
        <g transform="matrix(0.034056,0,0,0.0359281,2929.03,847.005)">
            <path d="M1524.13,1054.54C1547.57,1054.54 1568.15,1068.19 1584.94,1089.8C1613.12,1126.07 1630.23,1184.25 1630.23,1247.91C1630.23,1318.51 1603.55,1381.26 1561.96,1420.06C1535.4,1444.85 1502.74,1459.71 1467.31,1459.71C1431.88,1459.71 1399.23,1444.85 1372.66,1420.06C1331.07,1381.26 1304.4,1318.51 1304.4,1247.91C1304.4,1182.85 1325.78,1120.21 1359.57,1080.58C1380.31,1056.25 1405.64,1040.68 1433.65,1040.68C1452.79,1040.68 1472.8,1056.45 1445.36,1121C1418.85,1183.37 1427.69,1229.42 1441.85,1267.36C1450.51,1290.58 1461.44,1310.46 1466.31,1329.3C1468.48,1337.7 1465.87,1346.71 1462.94,1354.75C1458.96,1365.67 1454.01,1375.26 1452.61,1381.15L1451.91,1386.91L1452.83,1392.22L1455.82,1397.36L1460.97,1401.27C1468.35,1404.86 1477.51,1405.02 1486.92,1400.31C1500.49,1393.52 1516.55,1373.82 1520.89,1341.05C1524.33,1315.11 1517.47,1300.57 1507.98,1286.28C1496.98,1269.72 1481.19,1253.68 1481.19,1208.94C1481.19,1150.65 1483.96,1110 1492.36,1083.94C1498.69,1064.32 1507.94,1054.54 1524.13,1054.54Z" style="fill:rgb(64,43,21);"/>
        </g>
    </g>
</svg>
