<?xml version="1.0" encoding="UTF-8" standalone="no"?><!DOCTYPE svg PUBLIC "-//W3C//DTD SVG 1.1//EN" "http://www.w3.org/Graphics/SVG/1.1/DTD/svg11.dtd"><svg width="100%" height="100%" viewBox="0 0 567 567" version="1.1" xmlns="http://www.w3.org/2000/svg" xmlns:xlink="http://www.w3.org/1999/xlink" xml:space="preserve" xmlns:serif="http://www.serif.com/" style="fill-rule:evenodd;clip-rule:evenodd;stroke-linejoin:round;stroke-miterlimit:2;"><rect x="0" y="0" width="566.929" height="566.929" style="fill:#e4d6bf;"/><clipPath id="_clip1"><rect x="107.795" y="24.465" width="351.339" height="518"/></clipPath><g clip-path="url(#_clip1)"><g><g><g id="Layer1"><path d="M247.004,114.378c-9.67,-9.52 -15.679,-22.815 -15.679,-37.515c0,-28.92 23.253,-52.399 51.895,-52.399c28.641,0 51.895,23.479 51.895,52.399c0,14.701 -6.008,27.995 -15.679,37.515l14.299,74.081l22.005,0l0,-9.176l17.926,0l0,17.286l33.051,0c0.878,-1.875 2.218,-3.571 3.981,-4.908c5.833,-4.417 14.149,-3.27 18.569,2.561c4.414,5.83 3.266,14.15 -2.562,18.567c-5.833,4.417 -14.149,3.269 -18.569,-2.561c-0.563,-0.746 -1.036,-1.533 -1.425,-2.347l-33.045,0l0,17.287l-17.926,0l0,-10.244l-15.385,0c14.13,39.162 45.845,63.52 79.807,93.367c39.115,34.368 53.202,90.714 19.532,137.307c-18.091,25.033 -44.343,33.923 -56.635,36.838c-1.034,0.233 -2.102,-0.217 -2.658,-1.119c-0.555,-0.903 -0.476,-2.059 0.198,-2.877c3.982,-4.84 9.461,-11.49 10.883,-13.216c0.235,-0.285 0.535,-0.51 0.874,-0.655c4.217,-1.912 32.53,-15.889 40.666,-49.683c5.473,-22.745 6.086,-55.259 -25.241,-83.348c-30.474,-27.325 -84.879,-57.874 -99.037,-123.042l-0.133,-0.614l-50.783,0l-0.133,0.614c-14.157,65.169 -68.563,95.718 -99.038,123.042c-31.327,28.089 -30.715,60.603 -25.24,83.348c8.134,33.794 36.45,47.771 40.666,49.683c0.34,0.145 0.64,0.37 0.874,0.655c1.422,1.726 6.901,8.376 10.883,13.216c0.675,0.818 0.754,1.974 0.198,2.877c-0.556,0.903 -1.624,1.352 -2.658,1.119c-12.293,-2.915 -38.545,-11.805 -56.635,-36.838c-33.669,-46.593 -19.58,-102.939 19.53,-137.307c39.063,-34.327 75.149,-61.392 84.931,-112.07l15.797,-81.841Zm13.282,82.191l45.869,0l-14.615,-67.276c-2.097,1.189 -4.491,1.927 -7.059,2.078c-3.473,0.203 -6.758,-0.7 -9.509,-2.405l-14.686,67.603Zm56.023,-98.397c3.84,-6.055 6.064,-13.234 6.064,-20.928c0,-21.609 -17.543,-39.153 -39.152,-39.153c-21.608,0 -39.152,17.544 -39.152,39.153c0,7.694 2.225,14.873 6.065,20.928l3.425,-17.744c0.365,-1.894 1.923,-3.329 3.841,-3.538c1.918,-0.209 3.748,0.856 4.513,2.627l10.323,23.889c2.7,-2.606 6.308,-4.297 10.344,-4.534c4.503,-0.264 8.688,1.333 11.806,4.124l10.145,-23.479c0.765,-1.771 2.596,-2.837 4.513,-2.627c1.918,0.209 3.475,1.644 3.841,3.538l3.425,17.744Z" style="fill:#402b15;"/></g></g><g><g id="Layer2"><path d="M315.009,311.482c35.178,1.958 58.656,52.025 58.656,111.295c0,66.054 -40.53,119.674 -90.447,119.674c-49.918,0 -90.447,-53.621 -90.447,-119.674c0,-60.574 37.537,-122.1 78.245,-118.594c15.665,1.351 6.155,19.094 1.079,56.153c-7.592,55.424 17.502,88.813 23.846,114.36c3.576,14.412 -21.053,52.764 -12.724,56.983c8.329,4.213 29.187,-34 31.791,-54.445c3.704,-29.053 -25.412,-28.015 -25.412,-71.235c0,-63.936 9.531,-95.399 25.412,-94.516Z" style="fill:#402b15;"/></g></g></g></g></svg>